<svg width="64" height="49" viewBox="0 0 64 49" fill="none" xmlns="http://www.w3.org/2000/svg">
<path d="M42.6907 28.196C46.896 28.196 52.984 27.3267 52.984 22.324C52.9957 21.938 52.9599 21.5519 52.8773 21.1747L50.3707 10.2947C49.7947 7.89999 49.288 6.81466 45.0853 4.71333C41.824 3.04666 34.7173 0.291992 32.616 0.291992C30.6613 0.291992 30.0907 2.81466 27.7573 2.81466C25.512 2.81466 23.8453 0.931992 21.744 0.931992C19.7253 0.931992 18.4107 2.30533 17.3973 5.13466C17.3973 5.13466 14.5707 13.108 14.2053 14.2653C14.1472 14.478 14.1221 14.6983 14.1307 14.9187C14.1307 18.0173 26.336 28.1827 42.6907 28.1827V28.196ZM53.6267 24.356C54.208 27.108 54.208 27.396 54.208 27.7613C54.208 32.468 48.9173 35.0813 41.96 35.0813C26.24 35.092 12.4667 25.8787 12.4667 19.7907C12.4651 18.9424 12.6376 18.1029 12.9733 17.324C7.32267 17.6067 0 18.6173 0 25.0787C0 35.6627 25.08 48.708 44.936 48.708C60.1627 48.708 64 41.8227 64 36.388C64 32.108 60.3013 27.2547 53.6347 24.356" fill="#3898FF"/>
</svg>
