<svg width="50" height="51" viewBox="0 0 50 51" fill="none" xmlns="http://www.w3.org/2000/svg">
<path d="M25 49.5L30.3333 44.1667M37 44.1667C38.7681 44.1667 40.4638 43.4643 41.714 42.214C42.9643 40.9638 43.6667 39.2681 43.6667 37.5C43.6667 35.7319 42.9643 34.0362 41.714 32.786C40.4638 31.5357 38.7681 30.8333 37 30.8333C35.2319 30.8333 33.5362 31.5357 32.286 32.786C31.0357 34.0362 30.3333 35.7319 30.3333 37.5C30.3333 39.2681 31.0357 40.9638 32.286 42.214C33.5362 43.4643 35.2319 44.1667 37 44.1667V44.1667ZM19.6667 6.83333L25 1.5L19.6667 6.83333ZM13 20.1667C14.7681 20.1667 16.4638 19.4643 17.714 18.214C18.9643 16.9638 19.6667 15.2681 19.6667 13.5C19.6667 11.7319 18.9643 10.0362 17.714 8.78596C16.4638 7.53571 14.7681 6.83333 13 6.83333C11.2319 6.83333 9.5362 7.53571 8.28596 8.78596C7.03571 10.0362 6.33333 11.7319 6.33333 13.5C6.33333 15.2681 7.03571 16.9638 8.28596 18.214C9.5362 19.4643 11.2319 20.1667 13 20.1667V20.1667ZM14.3333 36.1667L35.6667 14.8333L14.3333 36.1667ZM7.66667 49.5C9.43478 49.5 11.1305 48.7976 12.3807 47.5474C13.631 46.2971 14.3333 44.6014 14.3333 42.8333C14.3333 41.0652 13.631 39.3695 12.3807 38.1193C11.1305 36.869 9.43478 36.1667 7.66667 36.1667C5.89856 36.1667 4.20286 36.869 2.95262 38.1193C1.70238 39.3695 1 41.0652 1 42.8333C1 44.6014 1.70238 46.2971 2.95262 47.5474C4.20286 48.7976 5.89856 49.5 7.66667 49.5V49.5ZM42.3333 14.8333C44.1014 14.8333 45.7971 14.131 47.0474 12.8807C48.2976 11.6305 49 9.93478 49 8.16667C49 6.39856 48.2976 4.70286 47.0474 3.45262C45.7971 2.20238 44.1014 1.5 42.3333 1.5C40.5652 1.5 38.8695 2.20238 37.6193 3.45262C36.369 4.70286 35.6667 6.39856 35.6667 8.16667C35.6667 9.93478 36.369 11.6305 37.6193 12.8807C38.8695 14.131 40.5652 14.8333 42.3333 14.8333Z" stroke="#3898FF" stroke-width="2" stroke-linecap="round" stroke-linejoin="round"/>
</svg>
