<svg width="199" height="53" viewBox="0 0 199 53" fill="none" xmlns="http://www.w3.org/2000/svg">
<path d="M49.3061 34.0243H42.5528C40.7662 34.0243 39.437 33.667 38.5652 32.9524C37.7076 32.2377 37.2788 31.1372 37.2788 29.6508V22.9618C37.2788 21.4753 37.7076 20.3748 38.5652 19.6601C39.437 18.9455 40.7662 18.5882 42.5528 18.5882H47.9126C48.1842 18.5882 48.3771 18.6525 48.4915 18.7811C48.6201 18.8955 48.6844 19.0884 48.6844 19.36V21.9541C48.6844 22.2257 48.6201 22.4258 48.4915 22.5544C48.3771 22.6688 48.1842 22.7259 47.9126 22.7259H43.4533C43.0102 22.7259 42.6815 22.8188 42.4671 23.0046C42.2527 23.1762 42.1455 23.4406 42.1455 23.7979V28.9218C42.1455 29.2792 42.2241 29.5436 42.3813 29.7151C42.5528 29.8866 42.803 29.9724 43.1317 29.9724H45.2113V26.6279C45.2113 26.3563 45.2684 26.1633 45.3828 26.049C45.5114 25.9204 45.7115 25.856 45.9831 25.856H49.3061C49.5777 25.856 49.7707 25.9204 49.885 26.049C50.0136 26.1633 50.078 26.3563 50.078 26.6279V33.2525C50.078 33.5241 50.0136 33.7242 49.885 33.8528C49.7707 33.9672 49.5777 34.0243 49.3061 34.0243Z" fill="white"/>
<path d="M58.2893 23.0904L57.2817 26.3491H60.6476L59.64 23.0904C59.5828 22.9618 59.5185 22.8689 59.447 22.8117C59.3898 22.7545 59.3184 22.7259 59.2326 22.7259H58.6966C58.6109 22.7259 58.5323 22.7545 58.4608 22.8117C58.4036 22.8689 58.3465 22.9618 58.2893 23.0904ZM57.0673 33.2525C57.0673 33.5241 57.0029 33.7242 56.8743 33.8528C56.76 33.9672 56.567 34.0243 56.2955 34.0243H53.1439C52.8723 34.0243 52.6722 33.9672 52.5436 33.8528C52.4293 33.7242 52.3721 33.5241 52.3721 33.2525V27.5926C52.3721 27.1638 52.4364 26.6707 52.5651 26.1133C52.708 25.5559 52.9224 24.9056 53.2082 24.1624L55.0734 19.2957C55.1592 19.0527 55.2878 18.874 55.4593 18.7597C55.6451 18.6454 55.881 18.5882 56.1668 18.5882H61.9339C62.2055 18.5882 62.427 18.6454 62.5986 18.7597C62.7844 18.874 62.9201 19.0527 63.0059 19.2957L64.8711 24.1624C65.157 24.9056 65.3642 25.5559 65.4928 26.1133C65.6358 26.6707 65.7072 27.1638 65.7072 27.5926V33.2525C65.7072 33.5241 65.6429 33.7242 65.5143 33.8528C65.3999 33.9672 65.207 34.0243 64.9354 34.0243H61.6981C61.4123 34.0243 61.1979 33.9672 61.0549 33.8528C60.9263 33.7242 60.862 33.5241 60.862 33.2525V30.2511H57.0673V33.2525Z" fill="white"/>
<path d="M77.278 34.0243H71.7038C71.4322 34.0243 71.2036 33.9743 71.0178 33.8743C70.8462 33.7742 70.7105 33.5884 70.6104 33.3168L68.5094 28.0643C68.3807 27.7498 68.2736 27.4783 68.1878 27.2496C68.102 27.0066 68.0306 26.7779 67.9734 26.5635C67.9162 26.3491 67.8734 26.1276 67.8448 25.8989C67.8305 25.6559 67.8233 25.3629 67.8233 25.0199V19.36C67.8233 19.0884 67.8805 18.8955 67.9948 18.7811C68.1235 18.6525 68.3236 18.5882 68.5951 18.5882H72.004C72.2755 18.5882 72.4828 18.6525 72.6257 18.7811C72.7686 18.8955 72.8401 19.0884 72.8401 19.36V25.2772C72.8401 25.4201 72.8544 25.563 72.883 25.706C72.9115 25.8489 72.9544 25.999 73.0116 26.1562L74.0192 29.1577C74.0621 29.3006 74.1121 29.4006 74.1693 29.4578C74.2265 29.5007 74.3122 29.5221 74.4266 29.5221H74.6624C74.7767 29.5221 74.8625 29.5007 74.9197 29.4578C74.9768 29.4006 75.0269 29.3006 75.0697 29.1577L76.0774 26.1348C76.1346 25.9775 76.1774 25.8275 76.206 25.6845C76.2346 25.5416 76.2489 25.3987 76.2489 25.2557V19.36C76.2489 19.0884 76.3061 18.8955 76.4204 18.7811C76.549 18.6525 76.7491 18.5882 77.0207 18.5882H80.3866C80.6582 18.5882 80.8512 18.6525 80.9655 18.7811C81.0941 18.8955 81.1585 19.0884 81.1585 19.36V25.0199C81.1585 25.3629 81.1442 25.6559 81.1156 25.8989C81.1013 26.1276 81.0655 26.3491 81.0084 26.5635C80.9512 26.7779 80.8797 27.0066 80.794 27.2496C80.7082 27.4783 80.601 27.7498 80.4724 28.0643L78.3714 33.3168C78.2713 33.5884 78.1284 33.7742 77.9426 33.8743C77.7711 33.9743 77.5495 34.0243 77.278 34.0243Z" fill="white"/>
<path d="M84.2343 34.0243C83.9627 34.0243 83.7626 33.9672 83.634 33.8528C83.5197 33.7242 83.4625 33.5241 83.4625 33.2525V30.7013C83.4625 30.4297 83.5197 30.2368 83.634 30.1224C83.7626 29.9938 83.9627 29.9295 84.2343 29.9295H86.3568V22.7259H84.2343C83.9627 22.7259 83.7626 22.6688 83.634 22.5544C83.5197 22.4258 83.4625 22.2257 83.4625 21.9541V19.36C83.4625 19.0884 83.5197 18.8955 83.634 18.7811C83.7626 18.6525 83.9627 18.5882 84.2343 18.5882H93.3673C93.6389 18.5882 93.8319 18.6525 93.9462 18.7811C94.0748 18.8955 94.1392 19.0884 94.1392 19.36V21.9541C94.1392 22.2257 94.0748 22.4258 93.9462 22.5544C93.8319 22.6688 93.6389 22.7259 93.3673 22.7259H91.2878V29.9295H93.3673C93.6389 29.9295 93.8319 29.9938 93.9462 30.1224C94.0748 30.2368 94.1392 30.4297 94.1392 30.7013V33.2525C94.1392 33.5241 94.0748 33.7242 93.9462 33.8528C93.8319 33.9672 93.6389 34.0243 93.3673 34.0243H84.2343Z" fill="white"/>
<path d="M100.774 34.0243H97.558C97.2865 34.0243 97.0864 33.9672 96.9577 33.8528C96.8434 33.7242 96.7862 33.5241 96.7862 33.2525V19.36C96.7862 19.0884 96.8434 18.8955 96.9577 18.7811C97.0864 18.6525 97.2865 18.5882 97.558 18.5882H99.7877C100.059 18.5882 100.288 18.6311 100.474 18.7168C100.674 18.8026 100.867 18.9527 101.053 19.167L105.212 23.9265V19.36C105.212 19.0884 105.269 18.8955 105.383 18.7811C105.512 18.6525 105.712 18.5882 105.984 18.5882H109.199C109.471 18.5882 109.664 18.6525 109.778 18.7811C109.907 18.8955 109.971 19.0884 109.971 19.36V33.2525C109.971 33.5241 109.907 33.7242 109.778 33.8528C109.664 33.9672 109.471 34.0243 109.199 34.0243H105.984C105.712 34.0243 105.512 33.9672 105.383 33.8528C105.269 33.7242 105.212 33.5241 105.212 33.2525V30.6155L101.546 26.1776V33.2525C101.546 33.5241 101.481 33.7242 101.353 33.8528C101.238 33.9672 101.045 34.0243 100.774 34.0243Z" fill="white"/>
<path d="M126.748 34.0243H118.516C118.244 34.0243 118.044 33.9672 117.915 33.8528C117.801 33.7242 117.744 33.5241 117.744 33.2525V19.36C117.744 19.0884 117.801 18.8955 117.915 18.7811C118.044 18.6525 118.244 18.5882 118.516 18.5882H125.355C126.755 18.5882 127.792 18.8597 128.463 19.4029C129.135 19.9317 129.471 20.7535 129.471 21.8684V22.8974C129.471 23.4977 129.364 23.9908 129.149 24.3767C128.949 24.7484 128.635 25.0271 128.206 25.2129C129.121 25.2986 129.8 25.6131 130.243 26.1562C130.686 26.6993 130.907 27.4926 130.907 28.5359V30.5083C130.907 31.7089 130.564 32.5951 129.878 33.1668C129.207 33.7385 128.163 34.0243 126.748 34.0243ZM122.568 22.2328V24.5483H124.39C124.661 24.5483 124.862 24.4768 124.99 24.3339C125.133 24.1909 125.205 23.9765 125.205 23.6907V23.0904C125.205 22.8045 125.133 22.5902 124.99 22.4472C124.862 22.3043 124.661 22.2328 124.39 22.2328H122.568ZM122.568 27.8499V30.3797H125.355C125.626 30.3797 125.826 30.3082 125.955 30.1653C126.098 30.0224 126.169 29.808 126.169 29.5221V28.686C126.169 28.4001 126.098 28.1929 125.955 28.0643C125.826 27.9213 125.626 27.8499 125.355 27.8499H122.568Z" fill="white"/>
<path d="M146.357 29.9724C146.357 30.6298 146.257 31.2301 146.056 31.7732C145.871 32.3021 145.528 32.7594 145.027 33.1453C144.541 33.5169 143.863 33.8099 142.991 34.0243C142.133 34.2387 141.04 34.3459 139.71 34.3459C138.381 34.3459 137.281 34.2387 136.409 34.0243C135.537 33.8099 134.851 33.5169 134.351 33.1453C133.865 32.7594 133.522 32.3021 133.322 31.7732C133.136 31.2301 133.043 30.6298 133.043 29.9724V22.6616C133.043 22.0042 133.136 21.411 133.322 20.8822C133.522 20.339 133.865 19.8745 134.351 19.4886C134.851 19.1027 135.537 18.8026 136.409 18.5882C137.281 18.3738 138.381 18.2666 139.71 18.2666C141.04 18.2666 142.133 18.3738 142.991 18.5882C143.863 18.8026 144.541 19.1027 145.027 19.4886C145.528 19.8745 145.871 20.339 146.056 20.8822C146.257 21.411 146.357 22.0042 146.357 22.6616V29.9724ZM137.91 29.2005C137.91 29.4864 138.017 29.7294 138.231 29.9295C138.446 30.1153 138.939 30.2082 139.71 30.2082C140.482 30.2082 140.975 30.1153 141.19 29.9295C141.404 29.7294 141.511 29.4864 141.511 29.2005V23.4334C141.511 23.1619 141.404 22.9332 141.19 22.7474C140.975 22.5473 140.482 22.4472 139.71 22.4472C138.939 22.4472 138.446 22.5473 138.231 22.7474C138.017 22.9332 137.91 23.1619 137.91 23.4334V29.2005Z" fill="white"/>
<path d="M162.164 29.9724C162.164 30.6298 162.064 31.2301 161.864 31.7732C161.678 32.3021 161.335 32.7594 160.835 33.1453C160.349 33.5169 159.67 33.8099 158.798 34.0243C157.94 34.2387 156.847 34.3459 155.518 34.3459C154.188 34.3459 153.088 34.2387 152.216 34.0243C151.344 33.8099 150.658 33.5169 150.158 33.1453C149.672 32.7594 149.329 32.3021 149.129 31.7732C148.943 31.2301 148.85 30.6298 148.85 29.9724V22.6616C148.85 22.0042 148.943 21.411 149.129 20.8822C149.329 20.339 149.672 19.8745 150.158 19.4886C150.658 19.1027 151.344 18.8026 152.216 18.5882C153.088 18.3738 154.188 18.2666 155.518 18.2666C156.847 18.2666 157.94 18.3738 158.798 18.5882C159.67 18.8026 160.349 19.1027 160.835 19.4886C161.335 19.8745 161.678 20.339 161.864 20.8822C162.064 21.411 162.164 22.0042 162.164 22.6616V29.9724ZM153.717 29.2005C153.717 29.4864 153.824 29.7294 154.038 29.9295C154.253 30.1153 154.746 30.2082 155.518 30.2082C156.289 30.2082 156.783 30.1153 156.997 29.9295C157.211 29.7294 157.319 29.4864 157.319 29.2005V23.4334C157.319 23.1619 157.211 22.9332 156.997 22.7474C156.783 22.5473 156.289 22.4472 155.518 22.4472C154.746 22.4472 154.253 22.5473 154.038 22.7474C153.824 22.9332 153.717 23.1619 153.717 23.4334V29.2005Z" fill="white"/>
<path d="M168.988 34.0243H165.665C165.393 34.0243 165.193 33.9672 165.065 33.8528C164.95 33.7242 164.893 33.5241 164.893 33.2525V19.36C164.893 19.0884 164.95 18.8955 165.065 18.7811C165.193 18.6525 165.393 18.5882 165.665 18.5882H168.988C169.259 18.5882 169.452 18.6525 169.567 18.7811C169.695 18.8955 169.76 19.0884 169.76 19.36V24.291H170.617L172.826 19.2957C172.926 19.0384 173.061 18.8597 173.233 18.7597C173.404 18.6454 173.626 18.5882 173.897 18.5882H177.199C177.442 18.5882 177.606 18.6525 177.692 18.7811C177.778 18.8955 177.771 19.067 177.671 19.2957L175.484 24.291C176.284 24.3339 176.92 24.6197 177.392 25.1486C177.878 25.6631 178.121 26.3491 178.121 27.2067V33.2525C178.121 33.5241 178.057 33.7242 177.928 33.8528C177.814 33.9672 177.621 34.0243 177.349 34.0243H174.048C173.776 34.0243 173.576 33.9672 173.447 33.8528C173.333 33.7242 173.276 33.5241 173.276 33.2525V29.0719C173.276 28.8432 173.219 28.6646 173.104 28.5359C172.99 28.4073 172.818 28.343 172.59 28.343H169.76V33.2525C169.76 33.5241 169.695 33.7242 169.567 33.8528C169.452 33.9672 169.259 34.0243 168.988 34.0243Z" fill="white"/>
<path d="M17.7546 31.015H11.4274C9.75357 31.015 8.50822 30.6775 7.69138 30.0026C6.88793 29.3276 6.48621 28.2883 6.48621 26.8844V20.5671C6.48621 19.1632 6.88793 18.1238 7.69138 17.4489C8.50822 16.774 9.75357 16.4365 11.4274 16.4365H16.449C16.7034 16.4365 16.8842 16.4973 16.9913 16.6188C17.1118 16.7267 17.1721 16.909 17.1721 17.1654V19.6154C17.1721 19.8719 17.1118 20.0609 16.9913 20.1824C16.8842 20.2904 16.7034 20.3444 16.449 20.3444H12.2711C11.8559 20.3444 11.5479 20.4321 11.3471 20.6076C11.1462 20.7696 11.0458 21.0193 11.0458 21.3567V26.196C11.0458 26.5334 11.1194 26.7832 11.2667 26.9451C11.4274 27.1071 11.6618 27.1881 11.9698 27.1881H13.9181V24.0295C13.9181 23.773 13.9717 23.5908 14.0788 23.4828C14.1993 23.3613 14.3868 23.3005 14.6412 23.3005H17.7546C18.009 23.3005 18.1898 23.3613 18.2969 23.4828C18.4175 23.5908 18.4777 23.773 18.4777 24.0295V30.286C18.4777 30.5425 18.4175 30.7315 18.2969 30.853C18.1898 30.961 18.009 31.015 17.7546 31.015Z" fill="white"/>
<path fill-rule="evenodd" clip-rule="evenodd" d="M0 8H21.7601C23.72 8 25.3652 9.35816 25.82 11.1917C27.2324 11.5903 28.3429 12.7172 28.7279 14.1453C30.5007 14.6353 31.8033 16.2712 31.8033 18.2138V40.7817C31.8033 43.1114 29.9297 45 27.6186 45H6.06773V44.9101L0 39.0045V8ZM1.67386 9.68732H21.7601C23.1468 9.68732 24.2709 10.8205 24.2709 12.2183V34.7862C24.2709 36.184 23.1468 37.3172 21.7601 37.3172H1.67386V9.68732ZM2.40983 39.0045L3.70332 40.2634H5.2308V40.3531H24.6894C26.076 40.3531 27.2002 39.22 27.2002 37.8222V15.2543C27.2002 14.3174 26.6952 13.4995 25.9448 13.0619V34.7862C25.9448 37.1159 24.0712 39.0045 21.7601 39.0045H2.40983ZM5.52914 42.0405L6.74407 43.2229H7.74159V43.3127H27.6186C29.0053 43.3127 30.1294 42.1795 30.1294 40.7817V18.2138C30.1294 17.277 29.6245 16.459 28.874 16.0214V37.8222C28.874 40.1519 27.0005 42.0405 24.6894 42.0405H5.52914Z" fill="#FFFCFC"/>
</svg>
